<svg id="Layer_1" data-name="Layer 1" xmlns="http://www.w3.org/2000/svg" xmlns:xlink="http://www.w3.org/1999/xlink" viewBox="0 0 597 302"><defs><style>.cls-1{fill:none;}.cls-2{fill:#071f33;}.cls-3{clip-path:url(#clip-path);}.cls-4{fill:url(#linear-gradient);}.cls-5{clip-path:url(#clip-path-2);}.cls-6{fill:url(#linear-gradient-2);}.cls-7{clip-path:url(#clip-path-3);}.cls-8{fill:url(#linear-gradient-3);}.cls-9{clip-path:url(#clip-path-4);}.cls-10{fill:url(#linear-gradient-4);}.cls-11{fill:#6a6c6e;}</style><clipPath id="clip-path"><path class="cls-1" d="M251.26,2.23v19H232.47v-19A18.78,18.78,0,0,0,213.69,21V39.87h37.57v18.7H270V2.23H251.26Z"/></clipPath><linearGradient id="linear-gradient" x1="-662.4" y1="667.26" x2="-661.4" y2="667.26" gradientTransform="matrix(-226.94, 0, 0, 226.94, -149966.06, -151400.63)" gradientUnits="userSpaceOnUse"><stop offset="0" stop-color="#796aa3"/><stop offset="1" stop-color="#ad84bb"/></linearGradient><clipPath id="clip-path-2"><path class="cls-1" d="M288.86,2.23h0V20.89H364.5v27.9h18.84V20.14h0A18.66,18.66,0,0,0,364.67,2.23Z"/></clipPath><linearGradient id="linear-gradient-2" x1="-662.4" y1="667.28" x2="-661.4" y2="667.28" gradientTransform="matrix(-226.94, 0, 0, 226.94, -149944.05, -151409.37)" xlink:href="#linear-gradient"/><clipPath id="clip-path-3"><path class="cls-1" d="M345.35,86.1h19.21v19.24H345.35Zm-18.78-46v65.24h-19V40.1H288.81v65.24H270V77.82H251.26v27.52H232.47V59.26H213.69V124h151a18.66,18.66,0,0,0,18.64-17.63h0V67.44h-38V40.1Z"/></clipPath><linearGradient id="linear-gradient-3" x1="-662.4" y1="667.26" x2="-661.4" y2="667.26" gradientTransform="matrix(-226.94, 0, 0, 226.94, -149915.6, -151349.65)" xlink:href="#linear-gradient"/><clipPath id="clip-path-4"><path class="cls-1" d="M213.69,135.85v18.78h4a14.76,14.76,0,0,0,14.76-14.76v-4H213.69Z"/></clipPath><linearGradient id="linear-gradient-4" x1="-662.4" y1="667.29" x2="-661.4" y2="667.29" gradientTransform="matrix(-226.94, 0, 0, 226.94, -149892.66, -151292.76)" xlink:href="#linear-gradient"/></defs><path class="cls-2" d="M141.19,154.63H119.35v24H108V196h11.36v12.91h0V252.7c0,8.26,3.44,11.7,11.71,11.7h1a19.63,19.63,0,0,0,19.63-19.63H145a3.45,3.45,0,0,1-3.79-3.78V196h19.95V178.67h-20Z"/><path class="cls-2" d="M198.49,241V171.31h0V154.63H176.63V252.7a11.7,11.7,0,0,0,11.7,11.7h1A19.61,19.61,0,0,0,209,244.78h-6.71a3.79,3.79,0,0,1-3.79-3.79"/><path class="cls-2" d="M93.79,244.77A3.79,3.79,0,0,1,90,241V178.67H68.14v5.22a43.73,43.73,0,1,0,.3,72.51c1,5.59,4.51,8,11.4,8h1a19.63,19.63,0,0,0,19.63-19.63Zm-25.69-.35-7-7a24.28,24.28,0,1,1,7-18.42c0,.43,0,25.46,0,25.46"/><path class="cls-2" d="M314.4,219.51a43.72,43.72,0,0,0-70.35-33.92c-.58-4-3.68-6.92-10.9-6.92H213.69V196h6.89c2.41,0,3.79,1.21,3.79,3.79V294.9a21.68,21.68,0,0,0,21.69-21.69V261.64c0-2.2-.09-4.06-.16-5.39a43.7,43.7,0,0,0,68.5-36.74m-43.71,25a24.17,24.17,0,0,1-17.22-7.17l-7.07,7.07V222s.16-4.44.26-5.16a24.28,24.28,0,1,1,24,27.73"/><g class="cls-3"><rect class="cls-4" x="202.05" y="-9.42" width="79.63" height="79.63" transform="translate(44.38 173.31) rotate(-43.05)"/></g><g class="cls-5"><rect class="cls-6" x="285.69" y="-23.75" width="100.82" height="98.52" transform="translate(73.1 236.32) rotate(-43.05)"/></g><g class="cls-7"><rect class="cls-8" x="207.9" y="-6.51" width="181.24" height="177.12" transform="translate(24.37 225.89) rotate(-43.05)"/></g><g class="cls-9"><rect class="cls-10" x="209.81" y="131.97" width="26.55" height="26.55" transform="translate(-39.08 191.41) rotate(-43.05)"/></g><path class="cls-11" d="M351.68,226.73h3L361,241.62h-3.39l-1.36-3.32H350l-1.35,3.32h-3.31Zm3.42,8.7-2-4.79-2,4.79Z"/><path class="cls-11" d="M363.8,226.84h5.76a8.81,8.81,0,0,1,3.18.56,7.55,7.55,0,0,1,2.49,1.55,7,7,0,0,1,1.62,2.33,7.51,7.51,0,0,1,.57,2.91v0a7.59,7.59,0,0,1-.57,2.91,7,7,0,0,1-1.62,2.34,7.41,7.41,0,0,1-2.49,1.56,8.41,8.41,0,0,1-3.18.58H363.8Zm5.76,11.84a5.08,5.08,0,0,0,1.82-.32,4,4,0,0,0,1.4-.9,4.29,4.29,0,0,0,.91-1.4,4.64,4.64,0,0,0,.33-1.79v0a4.8,4.8,0,0,0-.33-1.8,4.13,4.13,0,0,0-.91-1.41,4.06,4.06,0,0,0-1.4-.92,4.87,4.87,0,0,0-1.82-.33h-2.51v8.91Z"/><polygon class="cls-11" points="379.55 226.84 383.13 226.84 387 237.25 390.86 226.84 394.37 226.84 388.39 241.72 385.52 241.72 379.55 226.84"/><path class="cls-11" d="M402.22,226.73h3l6.33,14.89h-3.4l-1.35-3.32h-6.25l-1.35,3.32h-3.31Zm3.42,8.7-2-4.79-2,4.79Z"/><polygon class="cls-11" points="414.34 226.84 417.33 226.84 424.26 235.94 424.26 226.84 427.47 226.84 427.47 241.62 424.7 241.62 417.55 232.22 417.55 241.62 414.34 241.62 414.34 226.84"/><path class="cls-11" d="M438.44,241.87a7.66,7.66,0,0,1-3-.59,7.46,7.46,0,0,1-2.41-1.62,7.31,7.31,0,0,1-1.58-2.41,7.79,7.79,0,0,1-.57-3v0a7.7,7.7,0,0,1,.57-3,7.61,7.61,0,0,1,1.58-2.43,7.39,7.39,0,0,1,2.43-1.64,7.89,7.89,0,0,1,3.12-.61,10,10,0,0,1,1.89.17,8.07,8.07,0,0,1,1.55.47,6.21,6.21,0,0,1,1.29.72,8.93,8.93,0,0,1,1.1.92l-2.07,2.39a7.87,7.87,0,0,0-1.76-1.22,4.44,4.44,0,0,0-2-.45,4.1,4.1,0,0,0-3.08,1.35,4.78,4.78,0,0,0-.89,1.47,5,5,0,0,0-.31,1.78v0a5.07,5.07,0,0,0,.31,1.79,4.58,4.58,0,0,0,.88,1.48,4,4,0,0,0,1.35,1,4,4,0,0,0,1.74.37,4.49,4.49,0,0,0,2.14-.46,8.14,8.14,0,0,0,1.75-1.27l2.06,2.09a10.07,10.07,0,0,1-1.18,1.1,7,7,0,0,1-2.93,1.36,9.66,9.66,0,0,1-1.95.18"/><polygon class="cls-11" points="447.61 226.84 458.73 226.84 458.73 229.73 450.81 229.73 450.81 232.73 457.78 232.73 457.78 235.62 450.81 235.62 450.81 238.72 458.84 238.72 458.84 241.62 447.61 241.62 447.61 226.84"/><polygon class="cls-11" points="490.88 229.84 486.38 229.84 486.38 226.84 498.62 226.84 498.62 229.84 494.12 229.84 494.12 241.62 490.88 241.62 490.88 229.84"/><path class="cls-11" d="M501.62,226.84h6.75a5.82,5.82,0,0,1,4.31,1.5,4.53,4.53,0,0,1,1.27,3.37v0a4.6,4.6,0,0,1-.88,2.93,5.08,5.08,0,0,1-2.29,1.66l3.61,5.28h-3.8l-3.16-4.73h-2.56v4.73h-3.25Zm6.54,7.17a2.7,2.7,0,0,0,1.85-.57,1.91,1.91,0,0,0,.64-1.52v0a1.88,1.88,0,0,0-.67-1.58,3,3,0,0,0-1.88-.53h-3.23V234Z"/><path class="cls-11" d="M522.46,226.73h3l6.34,14.89h-3.4L527,238.3h-6.25l-1.35,3.32h-3.32Zm3.41,8.7-2-4.79-2,4.79Z"/><path class="cls-11" d="M534.57,226.84h5.77a8.76,8.76,0,0,1,3.17.56A7.35,7.35,0,0,1,546,229a6.89,6.89,0,0,1,1.62,2.33,7.33,7.33,0,0,1,.57,2.91v0a7.4,7.4,0,0,1-.57,2.91,6.83,6.83,0,0,1-1.62,2.34,7.22,7.22,0,0,1-2.49,1.56,8.36,8.36,0,0,1-3.17.58h-5.77Zm5.77,11.84a5,5,0,0,0,1.81-.32,3.84,3.84,0,0,0,1.4-.9,4.29,4.29,0,0,0,.91-1.4,4.64,4.64,0,0,0,.33-1.79v0a4.8,4.8,0,0,0-.33-1.8,4.13,4.13,0,0,0-.91-1.41,3.88,3.88,0,0,0-1.4-.92,4.82,4.82,0,0,0-1.81-.33h-2.52v8.91Z"/><polygon class="cls-11" points="551.59 226.84 562.71 226.84 562.71 229.73 554.79 229.73 554.79 232.73 561.76 232.73 561.76 235.62 554.79 235.62 554.79 238.72 562.82 238.72 562.82 241.62 551.59 241.62 551.59 226.84"/><path class="cls-11" d="M463.23,226.84H469a8.78,8.78,0,0,1,3.18.56,7.44,7.44,0,0,1,2.49,1.55,6.89,6.89,0,0,1,1.62,2.33,7.33,7.33,0,0,1,.57,2.91v0a7.4,7.4,0,0,1-.57,2.91,6.83,6.83,0,0,1-1.62,2.34,7.31,7.31,0,0,1-2.49,1.56,8.37,8.37,0,0,1-3.18.58h-5.76ZM469,238.68a5,5,0,0,0,1.82-.32,3.84,3.84,0,0,0,1.4-.9,4.29,4.29,0,0,0,.91-1.4,4.64,4.64,0,0,0,.33-1.79v0a4.8,4.8,0,0,0-.33-1.8,4.13,4.13,0,0,0-.91-1.41,3.88,3.88,0,0,0-1.4-.92,4.83,4.83,0,0,0-1.82-.33h-2.51v8.91Z"/><polygon class="cls-11" points="345.35 249.37 348.6 249.37 348.6 261.21 355.97 261.21 355.97 264.15 345.35 264.15 345.35 249.37"/><path class="cls-11" d="M366.1,264.4a8,8,0,0,1-3.14-.6,7.74,7.74,0,0,1-2.49-1.63,7.37,7.37,0,0,1-1.62-2.4,7.56,7.56,0,0,1-.58-3v0a7.36,7.36,0,0,1,.59-3,7.54,7.54,0,0,1,4.13-4.07,8.44,8.44,0,0,1,6.3,0,7.84,7.84,0,0,1,2.48,1.62,7.21,7.21,0,0,1,1.62,2.41,7.53,7.53,0,0,1,.58,3v0a7.35,7.35,0,0,1-.59,3,7.75,7.75,0,0,1-1.63,2.43,7.63,7.63,0,0,1-2.49,1.65,8.2,8.2,0,0,1-3.16.6m0-3a4.45,4.45,0,0,0,1.8-.36,4.14,4.14,0,0,0,1.4-1,4.61,4.61,0,0,0,.91-1.47,4.77,4.77,0,0,0,.32-1.78v0a4.91,4.91,0,0,0-.32-1.8,4.43,4.43,0,0,0-2.35-2.48,4.3,4.3,0,0,0-1.8-.37,4.38,4.38,0,0,0-1.8.36,4.14,4.14,0,0,0-1.4,1,4.73,4.73,0,0,0-1.23,3.26v0a5.07,5.07,0,0,0,.32,1.79,4.53,4.53,0,0,0,.93,1.48,4.46,4.46,0,0,0,1.42,1,4.23,4.23,0,0,0,1.8.37"/><path class="cls-11" d="M384.49,264.4a8.46,8.46,0,0,1-3.16-.57,7.3,7.3,0,0,1-2.45-1.59,7.09,7.09,0,0,1-1.59-2.4,8,8,0,0,1-.57-3v0a7.53,7.53,0,0,1,.58-3,7.46,7.46,0,0,1,4.06-4.07,7.91,7.91,0,0,1,3.11-.61,11,11,0,0,1,1.8.14,8.33,8.33,0,0,1,1.51.39,6.91,6.91,0,0,1,1.31.64,9.59,9.59,0,0,1,1.18.86l-2,2.47a7.66,7.66,0,0,0-.84-.63,5.71,5.71,0,0,0-.88-.47,5.61,5.61,0,0,0-1-.29,5.94,5.94,0,0,0-1.16-.11,3.91,3.91,0,0,0-1.66.37,4.56,4.56,0,0,0-1.35,1,4.45,4.45,0,0,0-.91,1.46,5,5,0,0,0-.32,1.78v0a5.4,5.4,0,0,0,.32,1.87,4.47,4.47,0,0,0,.93,1.49,4.35,4.35,0,0,0,3.22,1.33,5.08,5.08,0,0,0,3.06-.89v-2.12h-3.27v-2.81h6.42v6.41a10.78,10.78,0,0,1-2.71,1.66,8.89,8.89,0,0,1-3.6.69"/><rect class="cls-11" x="394.58" y="249.37" width="3.25" height="14.78"/><path class="cls-11" d="M407.31,264.36a10,10,0,0,1-3.32-.58A8.82,8.82,0,0,1,401,262l1.92-2.3A9.36,9.36,0,0,0,405,261a5.47,5.47,0,0,0,2.33.49,2.78,2.78,0,0,0,1.57-.38,1.15,1.15,0,0,0,.56-1v0a1.4,1.4,0,0,0-.11-.56,1.2,1.2,0,0,0-.45-.45,4.6,4.6,0,0,0-.91-.43c-.39-.14-.89-.28-1.51-.44a18.36,18.36,0,0,1-2-.61,5.56,5.56,0,0,1-1.55-.84,3.37,3.37,0,0,1-1-1.23,4.17,4.17,0,0,1-.35-1.84v0a4.37,4.37,0,0,1,.37-1.83,4.29,4.29,0,0,1,1.06-1.4,4.88,4.88,0,0,1,1.63-.91,6.6,6.6,0,0,1,2.09-.31,8.55,8.55,0,0,1,5.49,1.87l-1.69,2.45a10.7,10.7,0,0,0-1.94-1.06,5,5,0,0,0-1.9-.39,2.28,2.28,0,0,0-1.43.37,1.12,1.12,0,0,0-.47.91v.05a1.32,1.32,0,0,0,.13.62,1.36,1.36,0,0,0,.5.48,5,5,0,0,0,1,.4l1.58.44a16.17,16.17,0,0,1,2,.66,5.7,5.7,0,0,1,1.48.89,3.26,3.26,0,0,1,.91,1.22,4,4,0,0,1,.31,1.66v0a4.5,4.5,0,0,1-.4,2,3.82,3.82,0,0,1-1.11,1.43,4.83,4.83,0,0,1-1.7.89,7.52,7.52,0,0,1-2.19.31"/><polygon class="cls-11" points="419.49 252.37 414.99 252.37 414.99 249.37 427.24 249.37 427.24 252.37 422.74 252.37 422.74 264.14 419.49 264.14 419.49 252.37"/><rect class="cls-11" x="430.38" y="249.37" width="3.25" height="14.78"/><path class="cls-11" d="M444.76,264.4a7.71,7.71,0,0,1-3-.59,7.3,7.3,0,0,1-4-4,7.79,7.79,0,0,1-.57-3v0a7.7,7.7,0,0,1,.57-3,7.78,7.78,0,0,1,1.58-2.43,7.39,7.39,0,0,1,2.43-1.64,7.89,7.89,0,0,1,3.12-.61,10,10,0,0,1,1.89.17,8.4,8.4,0,0,1,1.56.47,6.4,6.4,0,0,1,1.28.72,8.93,8.93,0,0,1,1.1.92l-2.07,2.39a7.65,7.65,0,0,0-1.76-1.22,4.44,4.44,0,0,0-2-.45,4.1,4.1,0,0,0-3.08,1.35,4.77,4.77,0,0,0-1.2,3.25v.05a5.07,5.07,0,0,0,.31,1.79,5,5,0,0,0,.88,1.48,4,4,0,0,0,1.35,1,4,4,0,0,0,1.74.37,4.56,4.56,0,0,0,2.15-.46,8.34,8.34,0,0,0,1.74-1.27l2.07,2.09a10.14,10.14,0,0,1-1.19,1.1,6.71,6.71,0,0,1-1.34.83,7.07,7.07,0,0,1-1.59.53,9.56,9.56,0,0,1-1.94.18"/><path class="cls-11" d="M459.2,264.36a10,10,0,0,1-3.32-.58,8.82,8.82,0,0,1-2.95-1.79l1.92-2.3a9.36,9.36,0,0,0,2.08,1.31,5.44,5.44,0,0,0,2.33.49,2.78,2.78,0,0,0,1.57-.38,1.13,1.13,0,0,0,.56-1v0a1.4,1.4,0,0,0-.11-.56,1.2,1.2,0,0,0-.45-.45,4.6,4.6,0,0,0-.91-.43c-.39-.14-.89-.28-1.51-.44a18.36,18.36,0,0,1-2-.61,5.56,5.56,0,0,1-1.55-.84,3.37,3.37,0,0,1-1-1.23,4.17,4.17,0,0,1-.35-1.84v0a4.37,4.37,0,0,1,.37-1.83,4.16,4.16,0,0,1,1.06-1.4,4.88,4.88,0,0,1,1.63-.91,6.6,6.6,0,0,1,2.09-.31,8.55,8.55,0,0,1,5.49,1.87l-1.69,2.45a10.7,10.7,0,0,0-1.94-1.06,5,5,0,0,0-1.9-.39,2.28,2.28,0,0,0-1.43.37,1.1,1.1,0,0,0-.48.91v.05a1.32,1.32,0,0,0,.14.62,1.45,1.45,0,0,0,.5.48,5,5,0,0,0,1,.4l1.58.44a16.17,16.17,0,0,1,2,.66,5.7,5.7,0,0,1,1.48.89,3.37,3.37,0,0,1,.91,1.22,4,4,0,0,1,.31,1.66v0a4.5,4.5,0,0,1-.4,2,3.82,3.82,0,0,1-1.11,1.43,4.92,4.92,0,0,1-1.7.89,7.52,7.52,0,0,1-2.19.31"/><path class="cls-11" d="M474.48,249.37h6a7,7,0,0,1,2.37.37,5,5,0,0,1,1.78,1,4.75,4.75,0,0,1,1.12,1.62,5.3,5.3,0,0,1,.39,2.07v.05a5.18,5.18,0,0,1-.47,2.26,4.63,4.63,0,0,1-1.28,1.62,5.46,5.46,0,0,1-1.9,1,8.3,8.3,0,0,1-2.33.32h-2.47v4.43h-3.25Zm5.83,7.45a2.65,2.65,0,0,0,1.9-.64,2.13,2.13,0,0,0,.67-1.6v0a2,2,0,0,0-.7-1.67,3,3,0,0,0-1.94-.57h-2.51v4.52Z"/><polygon class="cls-11" points="489.09 249.37 492.34 249.37 492.34 261.21 499.71 261.21 499.71 264.15 489.09 264.15 489.09 249.37"/><path class="cls-11" d="M507.73,249.26h3l6.33,14.89h-3.4l-1.35-3.32h-6.25l-1.35,3.32h-3.32Zm3.42,8.7-2-4.79-2,4.79Z"/><polygon class="cls-11" points="523.29 252.37 518.79 252.37 518.79 249.37 531.03 249.37 531.03 252.37 526.54 252.37 526.54 264.14 523.29 264.14 523.29 252.37"/><polygon class="cls-11" points="534.03 249.37 545.28 249.37 545.28 252.3 537.28 252.3 537.28 255.49 544.33 255.49 544.33 258.43 537.28 258.43 537.28 264.15 534.03 264.15 534.03 249.37"/><path class="cls-11" d="M555.56,264.4a8.06,8.06,0,0,1-3.14-.6,7.59,7.59,0,0,1-2.48-1.63,7.24,7.24,0,0,1-1.63-2.4,7.75,7.75,0,0,1-.58-3v0a7.53,7.53,0,0,1,.59-3,7.54,7.54,0,0,1,4.13-4.07,8.16,8.16,0,0,1,3.16-.61,8.06,8.06,0,0,1,3.14.61,7.72,7.72,0,0,1,2.48,1.62,7.39,7.39,0,0,1,1.63,2.41,7.53,7.53,0,0,1,.58,3v0a7.52,7.52,0,0,1-.59,3,7.78,7.78,0,0,1-1.64,2.43,7.52,7.52,0,0,1-2.49,1.65,8.16,8.16,0,0,1-3.16.6m.05-3a4.44,4.44,0,0,0,1.79-.36,4.18,4.18,0,0,0,1.41-1A4.85,4.85,0,0,0,560,256.8v0a4.92,4.92,0,0,0-.33-1.8,4.43,4.43,0,0,0-2.35-2.48,4.3,4.3,0,0,0-1.8-.37,4.38,4.38,0,0,0-1.8.36,4.1,4.1,0,0,0-1.39,1,4.8,4.8,0,0,0-1.24,3.26v0a4.86,4.86,0,0,0,.33,1.79A4.45,4.45,0,0,0,553.8,261a4.25,4.25,0,0,0,1.81.37"/><path class="cls-11" d="M566.84,249.37h6.75a5.82,5.82,0,0,1,4.31,1.5,4.57,4.57,0,0,1,1.27,3.37v0a4.67,4.67,0,0,1-.88,2.93,5.14,5.14,0,0,1-2.29,1.66l3.61,5.28h-3.8l-3.17-4.73h-2.55v4.73h-3.25Zm6.54,7.17a2.71,2.71,0,0,0,1.85-.57,1.91,1.91,0,0,0,.64-1.52v0a1.88,1.88,0,0,0-.67-1.58,3,3,0,0,0-1.88-.53h-3.23v4.24Z"/><polygon class="cls-11" points="582.61 249.37 586.11 249.37 590 255.62 593.88 249.37 597.38 249.37 597.38 264.15 594.17 264.15 594.17 254.5 590.01 260.81 589.93 260.81 585.81 254.56 585.81 264.15 582.61 264.15 582.61 249.37"/></svg>